Coordinates
version=1
nRows=13
nColumns=40
inDegrees=yes

Units are S.I. units (second, meters, Newtons, ...)
If the header above contains a line with 'inDegrees', this indicates whether rotational values are in degrees (yes) or radians (no).

endheader
time	pelvis_tilt	pelvis_list	pelvis_rotation	pelvis_tx	pelvis_ty	pelvis_tz	hip_flexion_r	hip_adduction_r	hip_rotation_r	knee_angle_r	knee_angle_r_beta	ankle_angle_r	subtalar_angle_r	mtp_angle_r	hip_flexion_l	hip_adduction_l	hip_rotation_l	knee_angle_l	knee_angle_l_beta	ankle_angle_l	subtalar_angle_l	mtp_angle_l	lumbar_extension	lumbar_bending	lumbar_rotation	arm_flex_r	arm_add_r	arm_rot_r	elbow_flex_r	pro_sup_r	wrist_flex_r	wrist_dev_r	arm_flex_l	arm_add_l	arm_rot_l	elbow_flex_l	pro_sup_l	wrist_flex_l	wrist_dev_l
      2.50000000	      2.42972901	      5.80325790	      4.55886969	     -0.31380131	      1.08762606	     -0.77725821	      5.94815104	     -3.02252478	    -13.55735606	     17.36791241	      0.30312726	     -3.85529240	      0.00000000	      0.00000000	     15.26632110	     -7.12635261	     -4.40912789	     87.61986770	      1.52925518	     -7.26561323	      0.00000000	      0.00000000	     -8.69926347	      0.41023762	     -0.20395525	     89.92272929	    -12.96001995	     31.16621272	     32.30731220	     83.39936030	      0.00000000	      0.00000000	     89.92909802	     -6.93682021	     31.97512608	     36.63878116	     83.69919699	      0.00000000	      0.00000000
      2.50500000	      2.42101984	      5.80997157	      4.54608039	     -0.31384831	      1.08759262	     -0.77714121	      5.97155443	     -3.01953228	    -13.53800131	     17.38581434	      0.30343970	     -3.85763020	      0.00000000	      0.00000000	     15.24058716	     -7.14033967	     -4.46652186	     87.55854107	      1.52818483	     -7.31402930	      0.00000000	      0.00000000	     -8.71029245	      0.38965104	     -0.17491643	     89.92283868	    -12.96160790	     31.15227224	     32.30932187	     83.18078608	      0.00000000	      0.00000000	     89.92917991	     -6.91533289	     31.93905847	     36.63782448	     83.89331479	      0.00000000	      0.00000000
      2.51000000	      2.39286500	      5.80376490	      4.55617851	     -0.31391267	      1.08752026	     -0.77709067	      6.01172711	     -3.01351460	    -13.51946430	     17.39563509	      0.30361111	     -3.82063607	      0.00000000	      0.00000000	     15.25754812	     -7.14132090	     -4.48930103	     87.52599469	      1.52761679	     -7.35835899	      0.00000000	      0.00000000	     -8.70507573	      0.37380832	     -0.16270171	     89.92277511	    -12.98328818	     31.15744137	     32.32010735	     82.78769905	      0.00000000	      0.00000000	     89.92924903	     -6.89643055	     31.89853674	     36.68976801	     84.13762767	      0.00000000	      0.00000000
      2.51500000	      2.38551552	      5.78766347	      4.56457024	     -0.31391592	      1.08746191	     -0.77703458	      6.02572283	     -2.99362723	    -13.52359932	     17.40757304	      0.30381946	     -3.83732442	      0.00000000	      0.00000000	     15.24051553	     -7.16728575	     -4.52479778	     87.50022221	      1.52716697	     -7.38419567	      0.00000000	      0.00000000	     -8.70878248	      0.38101310	     -0.14575233	     89.92275769	    -13.00452212	     31.18144263	     32.32928197	     82.71540399	      0.00000000	      0.00000000	     89.92939194	     -6.86838187	     31.93044562	     36.66510233	     84.17105138	      0.00000000	      0.00000000
      2.52000000	      2.36921872	      5.76387191	      4.57851062	     -0.31395742	      1.08742032	     -0.77695849	      6.05523392	     -2.96621459	    -13.53281379	     17.41831672	      0.30400698	     -3.86013628	      0.00000000	      0.00000000	     15.25122353	     -7.18534225	     -4.52167690	     87.46448570	      1.52654325	     -7.41666764	      0.00000000	      0.00000000	     -8.71134168	      0.39185562	     -0.12779327	     89.92325551	    -13.03037532	     31.15530940	     32.35501851	     82.47622641	      0.00000000	      0.00000000	     89.92924124	     -6.84603684	     31.95357572	     36.68684014	     84.17614180	      0.00000000	      0.00000000
      2.52500000	      2.38637559	      5.78014985	      4.58166776	     -0.31398798	      1.08744179	     -0.77690542	      6.04515606	     -2.98502978	    -13.54066405	     17.44089668	      0.30440107	     -3.84067093	      0.00000000	      0.00000000	     15.20764708	     -7.17815058	     -4.57738164	     87.41749949	      1.52572319	     -7.45170681	      0.00000000	      0.00000000	     -8.75092623	      0.37084909	     -0.13503354	     89.92305294	    -13.00943854	     31.06014502	     32.36977562	     82.76164948	      0.00000000	      0.00000000	     89.92933817	     -6.82503914	     31.91511255	     36.65193140	     84.11388842	      0.00000000	      0.00000000
      2.53000000	      2.39614801	      5.75722403	      4.61237748	     -0.31400882	      1.08743248	     -0.77688551	      6.02740460	     -2.96314004	    -13.57306757	     17.42613595	      0.30414345	     -3.84243440	      0.00000000	      0.00000000	     15.19162117	     -7.19880088	     -4.57224849	     87.39405136	      1.52531394	     -7.48929424	      0.00000000	      0.00000000	     -8.77270480	      0.38957591	     -0.12765253	     89.92319559	    -13.06875159	     31.13120051	     32.40384662	     82.58096249	      0.00000000	      0.00000000	     89.92930091	     -6.77430495	     31.94630713	     36.62332163	     83.94449258	      0.00000000	      0.00000000
      2.53500000	      2.35385472	      5.73447256	      4.60534100	     -0.31407729	      1.08735519	     -0.77680868	      6.09997762	     -2.94134239	    -13.53793708	     17.46721415	      0.30486040	     -3.85391528	      0.00000000	      0.00000000	     15.22500483	     -7.20867552	     -4.58398362	     87.36610444	      1.52482618	     -7.56196054	      0.00000000	      0.00000000	     -8.74949617	      0.39823656	     -0.08851358	     89.92296761	    -13.08739454	     31.09905951	     32.42501521	     82.61704254	      0.00000000	      0.00000000	     89.92959163	     -6.74036828	     31.92082576	     36.63736023	     84.02321544	      0.00000000	      0.00000000
      2.54000000	      2.38635986	      5.72211896	      4.63684227	     -0.31406351	      1.08739318	     -0.77679420	      6.05230116	     -2.92983947	    -13.59799295	     17.45053279	      0.30456925	     -3.84354284	      0.00000000	      0.00000000	     15.16196576	     -7.22019928	     -4.58802257	     87.31642632	      1.52395913	     -7.56203356	      0.00000000	      0.00000000	     -8.79454499	      0.40900353	     -0.12243526	     89.92283095	    -13.07068461	     31.04160522	     32.41637039	     82.64545834	      0.00000000	      0.00000000	     89.92960095	     -6.75579354	     31.93382091	     36.65151681	     84.13458277	      0.00000000	      0.00000000
      2.54500000	      2.30142866	      5.75914342	      4.65649137	     -0.31423381	      1.08723929	     -0.77685134	      6.19433305	     -2.99928804	    -13.61339726	     17.55500447	      0.30639263	     -3.81012417	      0.00000000	      0.00000000	     15.25583521	     -7.14236704	     -4.59295319	     87.29568664	      1.52359715	     -7.57080167	      0.00000000	      0.00000000	     -8.73811030	      0.36151180	     -0.08853984	     89.92293922	    -13.13995310	     31.04334488	     32.46548668	     82.63746495	      0.00000000	      0.00000000	     89.92948985	     -6.70094401	     31.95735682	     36.66563660	     84.19175548	      0.00000000	      0.00000000
      2.55000000	      2.43794089	      5.67257699	      4.62782160	     -0.31408214	      1.08733302	     -0.77662205	      6.03736564	     -2.86605971	    -13.50461506	     17.53692912	      0.30607715	     -3.77354905	      0.00000000	      0.00000000	     15.05521009	     -7.30546963	     -4.68457810	     87.28211014	      1.52336020	     -7.38989687	      0.00000000	      0.00000000	     -8.86643600	      0.47152993	     -0.13482714	     89.92386207	    -13.05671485	     32.64242240	     32.61431463	     73.01547208	      0.00000000	      0.00000000	     89.92933364	     -6.89912155	     33.39269869	     36.91884907	     73.94276883	      0.00000000	      0.00000000
      2.55500000	      2.27941878	      5.73487796	      4.70652680	     -0.31432498	      1.08716532	     -0.77685576	      6.23576930	     -2.99222545	    -13.68073805	     17.59190509	      0.30703667	     -3.81273986	      0.00000000	      0.00000000	     15.26834502	     -7.13636091	     -4.59769447	     87.27979208	      1.52331974	     -7.59736427	      0.00000000	      0.00000000	     -8.74392912	      0.36881319	     -0.08382359	     89.92315693	    -13.19863531	     31.14109825	     32.51007870	     82.46493515	      0.00000000	      0.00000000	     89.92922840	     -6.60408399	     31.88346840	     36.59858566	     84.32510333	      0.00000000	      0.00000000
      2.56000000	      2.27031366	      5.74440614	      4.70771084	     -0.31433517	      1.08713289	     -0.77677733	      6.27482220	     -3.01019543	    -13.67986212	     17.66429733	      0.30830015	     -3.79792475	      0.00000000	      0.00000000	     15.25981394	     -7.12025850	     -4.62318113	     87.24046628	      1.52263338	     -7.63090372	      0.00000000	      0.00000000	     -8.74718639	      0.35726027	     -0.08733679	     89.92312300	    -13.16039670	     30.99177981	     32.49634152	     82.77266135	      0.00000000	      0.00000000	     89.92930447	     -6.65015186	     32.02627183	     36.63022319	     84.23180109	      0.00000000	      0.00000000
